<svg version="1.0" xmlns="http://www.w3.org/2000/svg"
 width="180.000000pt" height="180.000000pt" viewBox="0 0 180.000000 180.000000"
 preserveAspectRatio="xMidYMid meet">

<g transform="translate(0.000000,180.000000) scale(0.100000,-0.100000)"
fill="#FF1C44" stroke="none">
<path d="M361 1789 c-121 -24 -251 -121 -305 -227 -54 -107 -56 -126 -56 -653
0 -289 4 -508 10 -540 25 -129 118 -257 228 -313 107 -54 126 -56 653 -56 289
0 508 4 540 10 129 25 257 118 313 228 54 107 56 126 56 653 0 289 -4 508 -10
540 -25 129 -118 257 -228 313 -108 55 -124 56 -662 55 -272 -1 -515 -5 -539
-10z m628 -626 c6 -13 -6 -58 -45 -167 -30 -82 -53 -150 -52 -151 2 -2 125 62
273 141 149 79 281 144 295 144 42 0 88 -35 100 -78 15 -49 -6 -104 -47 -125
-75 -39 -745 -307 -766 -307 -29 0 -60 31 -59 62 0 13 38 101 86 196 47 94 86
174 86 176 0 2 -125 -49 -277 -115 -153 -65 -283 -119 -289 -119 -18 0 -25 28
-11 41 22 20 652 318 674 318 12 1 27 -7 32 -16z"/>
</g>
</svg>
